# xmcd
#
# Track frame offsets:
#	150
#	14210
#	43443
#	77626
#	106289
#	134924
#	157127
#
# Disc length: 2368 seconds
#
# Revision: 1
# Processed by: cddbd v1.5.2PL0 Copyright (c) Steve Scherf et al.
# Submitted via: audiograbber 1.83.01
#
DISCID=68093e07
DTITLE=Weirdness - I'm Gonna Get U [CDM)
DYEAR=2001
DGENRE=Trance
TTITLE0=I'm Gonna Get U (Radio Edit)
TTITLE1=I'm Gonna Get U (Extended Version)
TTITLE2=I'm Gonna Get U (Bostik RMX)
TTITLE3=I'm Gonna Get U (Empty Room RMX)
TTITLE4=I'm Gonna Get U (Fraction RMX)
TTITLE5=I'm Gonna Get U (Lost Method Mix)
TTITLE6=I'm Gonna Get U (Original Version)
EXTD=TR.
EXTT0=
EXTT1=
EXTT2=
EXTT3=
EXTT4=
EXTT5=
EXTT6=
PLAYORDER=
